<svg width="16" height="16" viewBox="0 0 16 16" fill="none" xmlns="http://www.w3.org/2000/svg">
<g clip-path="url(#clip0_263_114)">
<path d="M0 1C0 0.447715 0.447715 0 1 0H15C15.5523 0 16 0.447715 16 1V15C16 15.5523 15.5523 16 15 16H1C0.447715 16 0 15.5523 0 15V1Z" fill="#00B894"/>
<path d="M7.328 10.692C7.784 10.692 8.156 10.564 8.444 10.308C8.74 10.044 8.888 9.604 8.888 8.988V5.268H7.784V9.072C7.784 9.328 7.74 9.52 7.652 9.648C7.572 9.776 7.424 9.84 7.208 9.84C7.128 9.84 7.044 9.832 6.956 9.816C6.876 9.792 6.788 9.772 6.692 9.756V10.608C6.78 10.632 6.876 10.652 6.98 10.668C7.084 10.684 7.2 10.692 7.328 10.692ZM8 12.66C7.32 12.66 6.68 12.532 6.08 12.276C5.48 12.02 4.952 11.668 4.496 11.22C4.048 10.764 3.696 10.236 3.44 9.636C3.184 9.036 3.056 8.396 3.056 7.716C3.056 7.036 3.184 6.4 3.44 5.808C3.696 5.208 4.048 4.68 4.496 4.224C4.952 3.768 5.48 3.412 6.08 3.156C6.68 2.9 7.32 2.772 8 2.772C8.688 2.772 9.328 2.9 9.92 3.156C10.52 3.412 11.044 3.768 11.492 4.224C11.948 4.68 12.304 5.208 12.56 5.808C12.816 6.4 12.944 7.036 12.944 7.716C12.944 8.396 12.816 9.036 12.56 9.636C12.304 10.236 11.948 10.764 11.492 11.22C11.044 11.668 10.52 12.02 9.92 12.276C9.328 12.532 8.688 12.66 8 12.66Z" fill="white"/>
</g>
<defs>
<clipPath id="clip0_263_114">
<path d="M0 1C0 0.447715 0.447715 0 1 0H15C15.5523 0 16 0.447715 16 1V15C16 15.5523 15.5523 16 15 16H1C0.447715 16 0 15.5523 0 15V1Z" fill="white"/>
</clipPath>
</defs>
</svg>
