<svg width="16" height="16" viewBox="0 0 16 16" fill="none" xmlns="http://www.w3.org/2000/svg">
<g clip-path="url(#clip0_263_114)">
<rect width="16" height="16" fill="#00B894"/>
<path d="M4.16531 9.455C4.35531 9.455 4.51031 9.40167 4.63031 9.295C4.75365 9.185 4.81531 9.00167 4.81531 8.745V7.195H4.35531V8.78C4.35531 8.88667 4.33698 8.96667 4.30031 9.02C4.26698 9.07333 4.20531 9.1 4.11531 9.1C4.08198 9.1 4.04698 9.09667 4.01031 9.09C3.97698 9.08 3.94031 9.07167 3.90031 9.065V9.42C3.93698 9.43 3.97698 9.43833 4.02031 9.445C4.06365 9.45167 4.11198 9.455 4.16531 9.455ZM4.44531 10.275C4.16198 10.275 3.89531 10.2217 3.64531 10.115C3.39531 10.0083 3.17531 9.86167 2.98531 9.675C2.79865 9.485 2.65198 9.265 2.54531 9.015C2.43865 8.765 2.38531 8.49833 2.38531 8.215C2.38531 7.93167 2.43865 7.66667 2.54531 7.42C2.65198 7.17 2.79865 6.95 2.98531 6.76C3.17531 6.57 3.39531 6.42167 3.64531 6.315C3.89531 6.20833 4.16198 6.155 4.44531 6.155C4.73198 6.155 4.99865 6.20833 5.24531 6.315C5.49531 6.42167 5.71365 6.57 5.90031 6.76C6.09031 6.95 6.23865 7.17 6.34531 7.42C6.45198 7.66667 6.50531 7.93167 6.50531 8.215C6.50531 8.49833 6.45198 8.765 6.34531 9.015C6.23865 9.265 6.09031 9.485 5.90031 9.675C5.71365 9.86167 5.49531 10.0083 5.24531 10.115C4.99865 10.2217 4.73198 10.275 4.44531 10.275ZM7.26136 10V6.36364H8.71733C8.98485 6.36364 9.20798 6.40329 9.38672 6.4826C9.56546 6.56191 9.69981 6.67199 9.78977 6.81286C9.87973 6.95253 9.92472 7.11352 9.92472 7.29581C9.92472 7.43786 9.89631 7.56274 9.83949 7.67045C9.78267 7.77699 9.70455 7.86458 9.60511 7.93324C9.50687 8.00071 9.39441 8.04865 9.26776 8.07706V8.11257C9.40625 8.11849 9.53587 8.15755 9.65661 8.22976C9.77853 8.30196 9.87737 8.40317 9.95312 8.53338C10.0289 8.66241 10.0668 8.81629 10.0668 8.99503C10.0668 9.18797 10.0188 9.3602 9.92294 9.51172C9.82824 9.66205 9.68797 9.78101 9.50213 9.86861C9.31629 9.9562 9.08724 10 8.81499 10H7.26136ZM8.03018 9.37145H8.65696C8.87121 9.37145 9.02746 9.33061 9.12571 9.24893C9.22396 9.16607 9.27308 9.05599 9.27308 8.91868C9.27308 8.81806 9.24882 8.72929 9.20028 8.65234C9.15175 8.5754 9.0825 8.51503 8.99254 8.47124C8.90376 8.42744 8.79782 8.40554 8.67472 8.40554H8.03018V9.37145ZM8.03018 7.8853H8.60014C8.70549 7.8853 8.79901 7.86695 8.88068 7.83026C8.96354 7.79238 9.02865 7.73911 9.07599 7.67045C9.12453 7.6018 9.14879 7.51953 9.14879 7.42365C9.14879 7.29226 9.10204 7.18632 9.00852 7.10582C8.91619 7.02533 8.7848 6.98509 8.61435 6.98509H8.03018V7.8853ZM12.9782 7.53906C12.9534 7.45265 12.9185 7.3763 12.8735 7.31001C12.8285 7.24254 12.7735 7.18572 12.7084 7.13956C12.6444 7.09221 12.5711 7.05611 12.4882 7.03125C12.4065 7.00639 12.316 6.99396 12.2165 6.99396C12.0307 6.99396 11.8673 7.04013 11.7265 7.13246C11.5868 7.22479 11.4779 7.35914 11.3998 7.53551C11.3216 7.7107 11.2826 7.92495 11.2826 8.17827C11.2826 8.43158 11.3211 8.64702 11.398 8.82457C11.4749 9.00213 11.5838 9.13767 11.7247 9.23118C11.8656 9.32351 12.0319 9.36967 12.2236 9.36967C12.3976 9.36967 12.5462 9.3389 12.6693 9.27734C12.7936 9.21461 12.8883 9.12642 12.9534 9.01278C13.0197 8.89915 13.0528 8.7648 13.0528 8.60973L13.2091 8.63281H12.2716V8.05398H13.7932V8.51207C13.7932 8.83168 13.7258 9.1063 13.5908 9.33594C13.4559 9.56439 13.27 9.74077 13.0333 9.86506C12.7965 9.98816 12.5255 10.0497 12.2201 10.0497C11.8792 10.0497 11.5797 9.97455 11.3216 9.82422C11.0636 9.6727 10.8624 9.45786 10.718 9.17969C10.5747 8.90033 10.5031 8.56889 10.5031 8.18537C10.5031 7.89062 10.5457 7.62784 10.6309 7.39702C10.7174 7.16501 10.8381 6.96851 10.9932 6.80753C11.1482 6.64654 11.3287 6.52403 11.5347 6.43999C11.7407 6.35594 11.9638 6.31392 12.2041 6.31392C12.4101 6.31392 12.6018 6.34411 12.7794 6.40447C12.9569 6.46366 13.1144 6.5477 13.2517 6.65661C13.3902 6.76551 13.5032 6.89512 13.5908 7.04545C13.6784 7.1946 13.7346 7.35914 13.7595 7.53906H12.9782Z" fill="white"/>
</g>
<defs>
<clipPath id="clip0_263_114">
<rect width="16" height="16" fill="white"/>
</clipPath>
</defs>
</svg>
