<svg width="1280" height="720" viewBox="0 0 1280 720" fill="none" xmlns="http://www.w3.org/2000/svg">
<g clip-path="url(#clip0_102_9)">
<rect width="1280" height="720" fill="#00B894"/>
<path d="M279.539 463.77C297.399 463.77 311.969 458.757 323.249 448.73C334.843 438.39 340.639 421.157 340.639 397.03V251.33H297.399V400.32C297.399 410.347 295.676 417.867 292.229 422.88C289.096 427.893 283.299 430.4 274.839 430.4C271.706 430.4 268.416 430.087 264.969 429.46C261.836 428.52 258.389 427.737 254.629 427.11V460.48C258.076 461.42 261.836 462.203 265.909 462.83C269.983 463.457 274.526 463.77 279.539 463.77ZM305.859 540.85C279.226 540.85 254.159 535.837 230.659 525.81C207.159 515.783 186.479 501.997 168.619 484.45C151.073 466.59 137.286 445.91 127.259 422.41C117.233 398.91 112.219 373.843 112.219 347.21C112.219 320.577 117.233 295.667 127.259 272.48C137.286 248.98 151.073 228.3 168.619 210.44C186.479 192.58 207.159 178.637 230.659 168.61C254.159 158.583 279.226 153.57 305.859 153.57C332.806 153.57 357.873 158.583 381.059 168.61C404.559 178.637 425.083 192.58 442.629 210.44C460.489 228.3 474.433 248.98 484.459 272.48C494.486 295.667 499.499 320.577 499.499 347.21C499.499 373.843 494.486 398.91 484.459 422.41C474.433 445.91 460.489 466.59 442.629 484.45C425.083 501.997 404.559 515.783 381.059 525.81C357.873 535.837 332.806 540.85 305.859 540.85ZM570.568 515V173.182H707.429C732.576 173.182 753.55 176.909 770.352 184.364C787.153 191.819 799.782 202.167 808.239 215.408C816.695 228.538 820.923 243.671 820.923 260.806C820.923 274.158 818.253 285.897 812.912 296.023C807.571 306.037 800.227 314.271 790.881 320.724C781.645 327.067 771.075 331.573 759.169 334.244V337.582C772.188 338.138 784.371 341.81 795.721 348.597C807.182 355.385 816.473 364.898 823.594 377.138C830.715 389.266 834.276 403.731 834.276 420.533C834.276 438.67 829.769 454.859 820.756 469.102C811.855 483.233 798.67 494.415 781.2 502.649C763.731 510.883 742.201 515 716.609 515H570.568ZM642.837 455.916H701.754C721.894 455.916 736.581 452.077 745.817 444.4C755.052 436.611 759.67 426.263 759.67 413.356C759.67 403.898 757.389 395.553 752.827 388.32C748.265 381.088 741.755 375.413 733.299 371.296C724.954 367.179 714.995 365.121 703.423 365.121H642.837V455.916ZM642.837 316.218H696.413C706.316 316.218 715.107 314.493 722.784 311.044C730.573 307.483 736.693 302.476 741.143 296.023C745.705 289.569 747.987 281.836 747.987 272.823C747.987 260.472 743.591 250.514 734.801 242.947C726.122 235.381 713.771 231.598 697.749 231.598H642.837V316.218ZM1107.96 283.672C1105.62 275.549 1102.34 268.372 1098.11 262.141C1093.88 255.799 1088.71 250.458 1082.59 246.119C1076.58 241.668 1069.68 238.274 1061.89 235.938C1054.21 233.601 1045.7 232.433 1036.35 232.433C1018.88 232.433 1003.53 236.772 990.289 245.451C977.159 254.13 966.922 266.759 959.578 283.338C952.235 299.806 948.563 319.946 948.563 343.757C948.563 367.569 952.179 387.82 959.411 404.51C966.644 421.2 976.881 433.941 990.122 442.731C1003.36 451.41 1019 455.749 1037.02 455.749C1053.38 455.749 1067.34 452.856 1078.91 447.07C1090.6 441.173 1099.5 432.884 1105.62 422.202C1111.85 411.52 1114.97 398.891 1114.97 384.315L1129.65 386.484H1041.53V332.074H1184.56V375.135C1184.56 405.178 1178.22 430.992 1165.54 452.578C1152.85 474.053 1135.38 490.632 1113.13 502.315C1090.88 513.887 1065.4 519.673 1036.69 519.673C1004.64 519.673 976.491 512.608 952.235 498.477C927.978 484.234 909.062 464.039 895.487 437.891C882.024 411.631 875.292 380.476 875.292 344.425C875.292 316.719 879.298 292.017 887.309 270.32C895.432 248.511 906.781 230.04 921.357 214.908C935.934 199.775 952.902 188.259 972.263 180.359C991.624 172.459 1012.6 168.509 1035.19 168.509C1054.55 168.509 1072.57 171.346 1089.26 177.021C1105.95 182.584 1120.75 190.484 1133.66 200.721C1146.68 210.958 1157.3 223.142 1165.54 237.273C1173.77 251.293 1179.06 266.759 1181.39 283.672H1107.96ZM384.466 578.4V585.52C384.466 594.88 379.266 604.48 366.786 608.48L371.986 616.88C386.466 612.24 393.266 599.52 393.266 585.52V578.4H384.466ZM386.626 578.4V585.52C386.626 599.28 393.186 611.12 407.346 615.6L412.546 607.28C400.466 603.6 395.346 594.64 395.346 585.52V578.4H386.626ZM378.146 622.48V630.96H417.986V649.12H428.706V622.48H378.146ZM417.986 575.04V619.2H428.706V575.04H417.986ZM457.34 586.72V595.04C457.34 607.2 451.34 621.04 439.1 626.8L445.1 635.2C458.7 628.8 465.74 611.76 465.74 595.04V586.72H457.34ZM459.58 586.72V595.04C459.58 610.8 466.46 627.04 480.06 633.36L485.9 624.96C473.74 619.36 467.98 606.24 467.98 595.04V586.72H459.58ZM441.98 582.16V590.88H482.62V582.16H441.98ZM488.06 575.04V649.12H498.78V575.04H488.06ZM496.38 603.28V612.08H509.5V603.28H496.38ZM568.374 575.04V649.12H578.454V575.04H568.374ZM559.494 603.44V612.08H571.814V603.44H559.494ZM552.454 576.16V645.76H562.374V576.16H552.454ZM527.494 586.56V593.12C527.494 607.36 523.974 620.48 512.854 626.88L519.254 635.04C531.574 627.6 535.574 611.44 535.574 593.12V586.56H527.494ZM529.654 586.56V593.12C529.654 610.32 534.054 625.6 546.534 632.32L552.614 624.24C541.574 618.48 537.814 606.16 537.814 593.12V586.56H529.654ZM515.254 582.56V591.12H548.934V582.56H515.254ZM653.763 574.96V649.04H664.483V574.96H653.763ZM661.683 603.28V612H674.723V603.28H661.683ZM634.323 582.64V584.48C634.323 604.56 625.123 618.16 605.683 628.24L611.603 636.32C636.243 623.92 644.723 604.88 644.723 582.64H634.323ZM609.763 582.64V591.2H639.763V582.64H609.763ZM708.157 579.68V584.96C708.157 596.32 698.957 605.92 680.797 610.64L684.797 618.96C706.957 613.12 719.277 599.6 719.277 579.68H708.157ZM684.957 579.68V588.16H715.037V579.68H684.957ZM691.517 622.16V630.48H731.357V648.88H741.997V622.16H691.517ZM731.357 575.04V619.04H741.997V575.04H731.357ZM715.757 586.96V595.36H733.117V586.96H715.757ZM715.037 602.72V611.2H732.477V602.72H715.037ZM822.906 574.96V649.28H833.626V574.96H822.906ZM775.786 580.88V632H812.186V580.88H801.626V598.88H786.346V580.88H775.786ZM786.346 607.12H801.626V623.44H786.346V607.12ZM852.26 581.28V589.84H899.14V581.28H852.26ZM845.78 631.6V640.24H912.74V631.6H845.78ZM859.78 608.24V634.32H870.34V608.24H859.78ZM896.02 581.28V588.56C896.02 597.28 896.02 607.68 893.54 621.76L904.1 622.8C906.74 607.76 906.74 597.52 906.74 588.56V581.28H896.02ZM878.1 608.24V634.32H888.58V608.24H878.1Z" fill="white"/>
</g>
<defs>
<clipPath id="clip0_102_9">
<rect width="1280" height="720" fill="white"/>
</clipPath>
</defs>
</svg>
