<svg width="800" height="800" viewBox="0 0 800 800" fill="none" xmlns="http://www.w3.org/2000/svg">
<g clip-path="url(#clip0_247_127)">
<rect width="800" height="800" fill="#00B894"/>
<path d="M278.578 408.56V440.99H309.168V408.56H278.578ZM197.618 391.08V415.23H390.128V391.08H197.618ZM214.408 297.24V321.62H373.108V297.24H214.408ZM216.018 353.59V377.97H371.498V353.59H216.018ZM241.548 306.21V369.46H272.138V306.21H241.548ZM315.378 306.21V369.46H345.968V306.21H315.378ZM219.928 432.94V502.17H367.128V432.94H219.928ZM337.228 456.63V478.02H250.058V456.63H337.228ZM432.89 299.77V375.21H577.56V299.77H432.89ZM547.43 323.69V351.29H462.79V323.69H547.43ZM409.2 395.22V419.37H601.71V395.22H409.2ZM489.93 369.69V402.12H520.52V369.69H489.93ZM430.59 434.78V458.93H547.89V504.47H578.48V434.78H430.59Z" fill="white"/>
</g>
<defs>
<clipPath id="clip0_247_127">
<rect width="800" height="800" fill="white"/>
</clipPath>
</defs>
</svg>
