<svg width="1280" height="720" viewBox="0 0 1280 720" fill="none" xmlns="http://www.w3.org/2000/svg">
<g clip-path="url(#clip0_34_19)">
<rect width="1280" height="720" fill="white"/>
<path d="M279.539 403.77C297.399 403.77 311.969 398.757 323.249 388.73C334.843 378.39 340.639 361.157 340.639 337.03V191.33H297.399V340.32C297.399 350.347 295.676 357.867 292.229 362.88C289.096 367.893 283.299 370.4 274.839 370.4C271.706 370.4 268.416 370.087 264.969 369.46C261.836 368.52 258.389 367.737 254.629 367.11V400.48C258.076 401.42 261.836 402.203 265.909 402.83C269.983 403.457 274.526 403.77 279.539 403.77ZM305.859 480.85C279.226 480.85 254.159 475.837 230.659 465.81C207.159 455.783 186.479 441.997 168.619 424.45C151.073 406.59 137.286 385.91 127.259 362.41C117.233 338.91 112.219 313.843 112.219 287.21C112.219 260.577 117.233 235.667 127.259 212.48C137.286 188.98 151.073 168.3 168.619 150.44C186.479 132.58 207.159 118.637 230.659 108.61C254.159 98.5833 279.226 93.57 305.859 93.57C332.806 93.57 357.873 98.5833 381.059 108.61C404.559 118.637 425.083 132.58 442.629 150.44C460.489 168.3 474.433 188.98 484.459 212.48C494.486 235.667 499.499 260.577 499.499 287.21C499.499 313.843 494.486 338.91 484.459 362.41C474.433 385.91 460.489 406.59 442.629 424.45C425.083 441.997 404.559 455.783 381.059 465.81C357.873 475.837 332.806 480.85 305.859 480.85ZM570.568 455V113.182H707.429C732.576 113.182 753.55 116.909 770.352 124.364C787.153 131.819 799.782 142.167 808.239 155.408C816.695 168.538 820.923 183.671 820.923 200.806C820.923 214.158 818.253 225.897 812.912 236.023C807.571 246.037 800.227 254.271 790.881 260.724C781.645 267.067 771.075 271.573 759.169 274.244V277.582C772.188 278.138 784.371 281.81 795.721 288.597C807.182 295.385 816.473 304.898 823.594 317.138C830.715 329.266 834.276 343.731 834.276 360.533C834.276 378.67 829.769 394.859 820.756 409.102C811.855 423.233 798.67 434.415 781.2 442.649C763.731 450.883 742.201 455 716.609 455H570.568ZM642.837 395.916H701.754C721.894 395.916 736.581 392.077 745.817 384.4C755.052 376.611 759.67 366.263 759.67 353.356C759.67 343.898 757.389 335.553 752.827 328.32C748.265 321.088 741.755 315.413 733.299 311.296C724.954 307.179 714.995 305.121 703.423 305.121H642.837V395.916ZM642.837 256.218H696.413C706.316 256.218 715.107 254.493 722.784 251.044C730.573 247.483 736.693 242.476 741.143 236.023C745.705 229.569 747.987 221.836 747.987 212.823C747.987 200.472 743.591 190.514 734.801 182.947C726.122 175.381 713.771 171.598 697.749 171.598H642.837V256.218ZM1107.96 223.672C1105.62 215.549 1102.34 208.372 1098.11 202.141C1093.88 195.799 1088.71 190.458 1082.59 186.119C1076.58 181.668 1069.68 178.274 1061.89 175.938C1054.21 173.601 1045.7 172.433 1036.35 172.433C1018.88 172.433 1003.53 176.772 990.289 185.451C977.159 194.13 966.922 206.759 959.578 223.338C952.235 239.806 948.563 259.946 948.563 283.757C948.563 307.569 952.179 327.82 959.411 344.51C966.644 361.2 976.881 373.941 990.122 382.731C1003.36 391.41 1019 395.749 1037.02 395.749C1053.38 395.749 1067.34 392.856 1078.91 387.07C1090.6 381.173 1099.5 372.884 1105.62 362.202C1111.85 351.52 1114.97 338.891 1114.97 324.315L1129.65 326.484H1041.53V272.074H1184.56V315.135C1184.56 345.178 1178.22 370.992 1165.54 392.578C1152.85 414.053 1135.38 430.632 1113.13 442.315C1090.88 453.887 1065.4 459.673 1036.69 459.673C1004.64 459.673 976.491 452.608 952.235 438.477C927.978 424.234 909.062 404.039 895.487 377.891C882.024 351.631 875.292 320.476 875.292 284.425C875.292 256.719 879.298 232.017 887.309 210.32C895.432 188.511 906.781 170.04 921.357 154.908C935.934 139.775 952.902 128.259 972.263 120.359C991.624 112.459 1012.6 108.509 1035.19 108.509C1054.55 108.509 1072.57 111.346 1089.26 117.021C1105.95 122.584 1120.75 130.484 1133.66 140.721C1146.68 150.958 1157.3 163.142 1165.54 177.273C1173.77 191.293 1179.06 206.759 1181.39 223.672H1107.96ZM384.466 518.4V525.52C384.466 534.88 379.266 544.48 366.786 548.48L371.986 556.88C386.466 552.24 393.266 539.52 393.266 525.52V518.4H384.466ZM386.626 518.4V525.52C386.626 539.28 393.186 551.12 407.346 555.6L412.546 547.28C400.466 543.6 395.346 534.64 395.346 525.52V518.4H386.626ZM378.146 562.48V570.96H417.986V589.12H428.706V562.48H378.146ZM417.986 515.04V559.2H428.706V515.04H417.986ZM457.34 526.72V535.04C457.34 547.2 451.34 561.04 439.1 566.8L445.1 575.2C458.7 568.8 465.74 551.76 465.74 535.04V526.72H457.34ZM459.58 526.72V535.04C459.58 550.8 466.46 567.04 480.06 573.36L485.9 564.96C473.74 559.36 467.98 546.24 467.98 535.04V526.72H459.58ZM441.98 522.16V530.88H482.62V522.16H441.98ZM488.06 515.04V589.12H498.78V515.04H488.06ZM496.38 543.28V552.08H509.5V543.28H496.38ZM568.374 515.04V589.12H578.454V515.04H568.374ZM559.494 543.44V552.08H571.814V543.44H559.494ZM552.454 516.16V585.76H562.374V516.16H552.454ZM527.494 526.56V533.12C527.494 547.36 523.974 560.48 512.854 566.88L519.254 575.04C531.574 567.6 535.574 551.44 535.574 533.12V526.56H527.494ZM529.654 526.56V533.12C529.654 550.32 534.054 565.6 546.534 572.32L552.614 564.24C541.574 558.48 537.814 546.16 537.814 533.12V526.56H529.654ZM515.254 522.56V531.12H548.934V522.56H515.254ZM653.763 514.96V589.04H664.483V514.96H653.763ZM661.683 543.28V552H674.723V543.28H661.683ZM634.323 522.64V524.48C634.323 544.56 625.123 558.16 605.683 568.24L611.603 576.32C636.243 563.92 644.723 544.88 644.723 522.64H634.323ZM609.763 522.64V531.2H639.763V522.64H609.763ZM708.157 519.68V524.96C708.157 536.32 698.957 545.92 680.797 550.64L684.797 558.96C706.957 553.12 719.277 539.6 719.277 519.68H708.157ZM684.957 519.68V528.16H715.037V519.68H684.957ZM691.517 562.16V570.48H731.357V588.88H741.997V562.16H691.517ZM731.357 515.04V559.04H741.997V515.04H731.357ZM715.757 526.96V535.36H733.117V526.96H715.757ZM715.037 542.72V551.2H732.477V542.72H715.037ZM822.906 514.96V589.28H833.626V514.96H822.906ZM775.786 520.88V572H812.186V520.88H801.626V538.88H786.346V520.88H775.786ZM786.346 547.12H801.626V563.44H786.346V547.12ZM852.26 521.28V529.84H899.14V521.28H852.26ZM845.78 571.6V580.24H912.74V571.6H845.78ZM859.78 548.24V574.32H870.34V548.24H859.78ZM896.02 521.28V528.56C896.02 537.28 896.02 547.68 893.54 561.76L904.1 562.8C906.74 547.76 906.74 537.52 906.74 528.56V521.28H896.02ZM878.1 548.24V574.32H888.58V548.24H878.1Z" fill="#2D3436"/>
</g>
<defs>
<clipPath id="clip0_34_19">
<rect width="1280" height="720" fill="white"/>
</clipPath>
</defs>
</svg>
