<svg width="1280" height="720" viewBox="0 0 1280 720" fill="none" xmlns="http://www.w3.org/2000/svg">
<g clip-path="url(#clip0_102_9)">
<rect width="1280" height="720" fill="#00B894"/>
<path d="M279.539 479.77C297.399 479.77 311.969 474.757 323.249 464.73C334.843 454.39 340.639 437.157 340.639 413.03V267.33H297.399V416.32C297.399 426.347 295.676 433.867 292.229 438.88C289.096 443.893 283.299 446.4 274.839 446.4C271.706 446.4 268.416 446.087 264.969 445.46C261.836 444.52 258.389 443.737 254.629 443.11V476.48C258.076 477.42 261.836 478.203 265.909 478.83C269.983 479.457 274.526 479.77 279.539 479.77ZM305.859 556.85C279.226 556.85 254.159 551.837 230.659 541.81C207.159 531.783 186.479 517.997 168.619 500.45C151.073 482.59 137.286 461.91 127.259 438.41C117.233 414.91 112.219 389.843 112.219 363.21C112.219 336.577 117.233 311.667 127.259 288.48C137.286 264.98 151.073 244.3 168.619 226.44C186.479 208.58 207.159 194.637 230.659 184.61C254.159 174.583 279.226 169.57 305.859 169.57C332.806 169.57 357.873 174.583 381.059 184.61C404.559 194.637 425.083 208.58 442.629 226.44C460.489 244.3 474.433 264.98 484.459 288.48C494.486 311.667 499.499 336.577 499.499 363.21C499.499 389.843 494.486 414.91 484.459 438.41C474.433 461.91 460.489 482.59 442.629 500.45C425.083 517.997 404.559 531.783 381.059 541.81C357.873 551.837 332.806 556.85 305.859 556.85ZM570.568 531V189.182H707.429C732.576 189.182 753.55 192.909 770.352 200.364C787.153 207.819 799.782 218.167 808.239 231.408C816.695 244.538 820.923 259.671 820.923 276.806C820.923 290.158 818.253 301.897 812.912 312.023C807.571 322.037 800.227 330.271 790.881 336.724C781.645 343.067 771.075 347.573 759.169 350.244V353.582C772.188 354.138 784.371 357.81 795.721 364.597C807.182 371.385 816.473 380.898 823.594 393.138C830.715 405.266 834.276 419.731 834.276 436.533C834.276 454.67 829.769 470.859 820.756 485.102C811.855 499.233 798.67 510.415 781.2 518.649C763.731 526.883 742.201 531 716.609 531H570.568ZM642.837 471.916H701.754C721.894 471.916 736.581 468.077 745.817 460.4C755.052 452.611 759.67 442.263 759.67 429.356C759.67 419.898 757.389 411.553 752.827 404.32C748.265 397.088 741.755 391.413 733.299 387.296C724.954 383.179 714.995 381.121 703.423 381.121H642.837V471.916ZM642.837 332.218H696.413C706.316 332.218 715.107 330.493 722.784 327.044C730.573 323.483 736.693 318.476 741.143 312.023C745.705 305.569 747.987 297.836 747.987 288.823C747.987 276.472 743.591 266.514 734.801 258.947C726.122 251.381 713.771 247.598 697.749 247.598H642.837V332.218ZM1107.96 299.672C1105.62 291.549 1102.34 284.372 1098.11 278.141C1093.88 271.799 1088.71 266.458 1082.59 262.119C1076.58 257.668 1069.68 254.274 1061.89 251.938C1054.21 249.601 1045.7 248.433 1036.35 248.433C1018.88 248.433 1003.53 252.772 990.289 261.451C977.159 270.13 966.922 282.759 959.578 299.338C952.235 315.806 948.563 335.946 948.563 359.757C948.563 383.569 952.179 403.82 959.411 420.51C966.644 437.2 976.881 449.941 990.122 458.731C1003.36 467.41 1019 471.749 1037.02 471.749C1053.38 471.749 1067.34 468.856 1078.91 463.07C1090.6 457.173 1099.5 448.884 1105.62 438.202C1111.85 427.52 1114.97 414.891 1114.97 400.315L1129.65 402.484H1041.53V348.074H1184.56V391.135C1184.56 421.178 1178.22 446.992 1165.54 468.578C1152.85 490.053 1135.38 506.632 1113.13 518.315C1090.88 529.887 1065.4 535.673 1036.69 535.673C1004.64 535.673 976.491 528.608 952.235 514.477C927.978 500.234 909.062 480.039 895.487 453.891C882.024 427.631 875.292 396.476 875.292 360.425C875.292 332.719 879.298 308.017 887.309 286.32C895.432 264.511 906.781 246.04 921.357 230.908C935.934 215.775 952.902 204.259 972.263 196.359C991.624 188.459 1012.6 184.509 1035.19 184.509C1054.55 184.509 1072.57 187.346 1089.26 193.021C1105.95 198.584 1120.75 206.484 1133.66 216.721C1146.68 226.958 1157.3 239.142 1165.54 253.273C1173.77 267.293 1179.06 282.759 1181.39 299.672H1107.96Z" fill="white"/>
</g>
<defs>
<clipPath id="clip0_102_9">
<rect width="1280" height="720" fill="white"/>
</clipPath>
</defs>
</svg>
