<svg width="800" height="800" viewBox="0 0 800 800" fill="none" xmlns="http://www.w3.org/2000/svg">
<g clip-path="url(#clip0_247_124)">
<rect width="800" height="800" fill="#00B894"/>
<path d="M351.488 291.49V504.47H380.698V291.49H351.488ZM325.958 372.68V397.29H361.148V372.68H325.958ZM304.798 294.71V494.81H333.548V294.71H304.798ZM203.598 313.34V451.34H287.778V313.34H203.598ZM259.258 337.26V427.42H232.118V337.26H259.258ZM456.58 315.18V328.52C456.58 355.66 441.63 383.49 406.21 395.22L421.39 419.37C462.56 405.8 481.65 369.23 481.65 328.52V315.18H456.58ZM462.79 315.18V328.52C462.79 366.47 481.19 399.82 521.67 412.01L536.16 388.09C501.89 377.74 487.63 353.36 487.63 328.52V315.18H462.79ZM414.26 305.75V330.13H529.26V305.75H414.26ZM546.28 291.49V417.76H576.87V291.49H546.28ZM568.36 340.48V365.55H605.16V340.48H568.36ZM507.41 421.67C463.02 421.67 435.19 437.08 435.19 463.07C435.19 489.06 463.02 504.47 507.41 504.47C551.57 504.47 579.4 489.06 579.4 463.07C579.4 437.08 551.57 421.67 507.41 421.67ZM507.41 445.59C534.55 445.59 549.04 451.11 549.04 463.07C549.04 475.03 534.55 481.01 507.41 481.01C480.27 481.01 465.55 475.03 465.55 463.07C465.55 451.11 480.27 445.59 507.41 445.59Z" fill="white"/>
</g>
<defs>
<clipPath id="clip0_247_124">
<rect width="800" height="800" fill="white"/>
</clipPath>
</defs>
</svg>
